<?xml version="1.0" encoding="UTF-8"?>
<svg xmlns="http://www.w3.org/2000/svg" xmlns:xlink="http://www.w3.org/1999/xlink" viewBox="0 0 13 13" width="13px" height="13px">
<g id="surface3253542">
<path style="fill-rule:evenodd;fill:rgb(0%,0%,0%);fill-opacity:1;stroke-width:1;stroke-linecap:butt;stroke-linejoin:round;stroke:rgb(80.000001%,80.000001%,80.000001%);stroke-opacity:1;stroke-miterlimit:10;" d="M 93.175261 14.351358 L 93.175261 78.824736 L 157.648639 78.824736 L 157.648639 93.175261 L 93.175261 93.175261 L 93.175261 157.648639 L 78.824736 157.648639 L 78.824736 93.175261 L 14.351358 93.175261 L 14.351358 78.824736 L 78.824736 78.824736 L 78.824736 14.351358 Z M 93.175261 14.351358 " transform="matrix(0.0751279,0,0,0.0751279,0.039,0.039)"/>
<path style=" stroke:none;fill-rule:evenodd;fill:rgb(87.058824%,31.764707%,24.705882%);fill-opacity:1;" d="M 5.960938 1.117188 L 5.960938 5.960938 L 1.117188 5.960938 L 1.117188 7.039062 L 5.960938 7.039062 L 5.960938 11.882812 L 7.039062 11.882812 L 7.039062 7.039062 L 11.882812 7.039062 L 11.882812 5.960938 L 7.039062 5.960938 L 7.039062 1.117188 Z M 5.960938 1.117188 "/>
</g>
</svg>
